<svg fill="none" height="24" width="24" xmlns="http://www.w3.org/2000/svg"><g fill="#000"><path d="m19 2c-2.8 0-5 2.2-5 5s2.2 5 5 5 5-2.2 5-5-2.2-5-5-5zm-.1 2.5c.3 0 .6.3.6.6v1.2c0 .2 0 .2.2.2h1.2c.3 0 .6.3.6.6s-.3.6-.6.6h-1.2c-.2 0-.2 0-.2.2v1.2c0 .3-.3.6-.6.6s-.6-.3-.6-.6v-1.2c0-.2 0-.2-.2-.2h-1.2c-.3 0-.6-.3-.6-.6s.3-.6.6-.6h1.2c.2 0 .2 0 .2-.2v-1.2c0-.3.3-.6.6-.6zm-9.2 14.4h.1l-.1-.1z"/><path d="m19.2 13.6v6.3c0 .2 0 .4-.4.4h-16.8v-13.7c0-.2 0-.4.4-.4h10.1c0-.7.3-1.3.5-1.8h-11.6c-.9.2-1.4.9-1.4 1.8v14c0 1 .8 1.8 1.8 1.8h17.5c1 0 1.8-.8 1.8-1.8v-6.9c-.6.2-1.2.3-1.8.3z"/><path d="m4.8 7.5c-.7 0-1.3.6-1.3 1.3v8.9c0 .4.2.7.5 1l2.6-3.5c.2-.3.6-.5.9-.5.4 0 .7.2.9.5l.9 1.3 2.3-3.5c.3-.4.8-.7 1.3-.7s1 .3 1.3.7l3.1 5v-4.5c-2.8-.6-4.9-3-5.1-6h-7.6zm1.9 5c-.9 0-1.6-.7-1.6-1.6s.7-1.6 1.6-1.6 1.6.7 1.6 1.6-.7 1.6-1.6 1.6z"/><path d="m5.2 18.9h2.6l1-1.5-1.2-1.7zm5.2-1.1-.7 1 .1.1h6.4l-3.1-5.1z"/></g></svg>